<?xml version="1.0" standalone="no"?><!DOCTYPE svg PUBLIC "-//W3C//DTD SVG 1.1//EN" "http://www.w3.org/Graphics/SVG/1.1/DTD/svg11.dtd"><svg t="1656939781140" class="icon" viewBox="0 0 1024 1024" version="1.1" xmlns="http://www.w3.org/2000/svg" p-id="1104" xmlns:xlink="http://www.w3.org/1999/xlink" width="200" height="200"><defs><style type="text/css">@font-face { font-family: feedback-iconfont; src: url("//at.alicdn.com/t/font_1031158_u69w8yhxdu.woff2?t=1630033759944") format("woff2"), url("//at.alicdn.com/t/font_1031158_u69w8yhxdu.woff?t=1630033759944") format("woff"), url("//at.alicdn.com/t/font_1031158_u69w8yhxdu.ttf?t=1630033759944") format("truetype"); }
</style></defs><path d="M883.945887 681.330724H140.493832A100.195695 100.195695 0 0 1 40.298137 581.135029V100.195695A100.195695 100.195695 0 0 1 140.493832 0h743.452055a100.195695 100.195695 0 0 1 100.195695 100.195695v480.939334a100.195695 100.195695 0 0 1-100.195695 100.195695zM140.493832 80.156556a20.039139 20.039139 0 0 0-20.039139 20.039139v480.939334a20.039139 20.039139 0 0 0 20.039139 20.039139h743.452055a20.039139 20.039139 0 0 0 20.039139-20.039139V100.195695a20.039139 20.039139 0 0 0-20.039139-20.039139z" fill="" p-id="1105"></path><path d="M924.024165 1024H100.415554a100.195695 100.195695 0 0 1-51.099804-14.027397C14.247257 989.933464-4.789925 947.851272 2.223773 906.771037l37.072407-203.39726c1.001957-4.007828 1.001957-9.017613 2.003914-14.027397a100.195695 100.195695 0 0 1 99.193738-90.176126h743.452055a100.195695 100.195695 0 0 1 99.193738 90.176126c0 4.007828 1.001957 9.017613 2.003913 14.027397l36.070451 202.395303c7.013699 41.080235-12.023483 83.162427-47.091977 103.201566a100.195695 100.195695 0 0 1-50.097847 15.029354zM140.493832 680.328767a20.039139 20.039139 0 0 0-20.039139 18.035225c-1.001957 6.011742-1.001957 13.02544-3.005871 20.039139L81.378372 920.798434c-1.001957 8.015656 2.003914 16.031311 9.017613 20.039139l10.019569 3.005871h823.608611l10.019569-3.005871c7.013699-4.007828 10.019569-12.023483 9.017613-20.039139l-36.07045-202.395303c-1.001957-7.013699-2.003914-14.027397-3.005871-20.039139a20.039139 20.039139 0 0 0-20.039139-18.035225z" fill="" p-id="1106"></path><path d="M823.82847 794.551859H200.611249a40.078278 40.078278 0 0 1 0-80.156556h623.217221a40.078278 40.078278 0 0 1 0 80.156556zM866.912619 913.784736H157.5271a40.078278 40.078278 0 0 1 0-80.156556h709.385519a40.078278 40.078278 0 0 1 0 80.156556zM525.2453 590.152642h-26.050881a40.078278 40.078278 0 0 1 0-80.156556h26.050881a40.078278 40.078278 0 0 1 0 80.156556zM180.57211 239.46771a40.078278 40.078278 0 0 1-28.054795-68.133072l59.11546-59.11546a40.383875 40.383875 0 1 1 57.111546 57.111546l-59.11546 59.11546a40.078278 40.078278 0 0 1-29.056751 11.021526zM200.611249 354.692759a40.078278 40.078278 0 0 1-28.054795-68.133072l153.299413-154.30137a40.383875 40.383875 0 0 1 57.111546 57.111546L228.666043 342.669276a40.078278 40.078278 0 0 1-28.054794 12.023483z" fill="" p-id="1107"></path></svg>